<svg width="405" height="270" viewBox="0 0 405 270" fill="none" xmlns="http://www.w3.org/2000/svg">
<path d="M8.29138 270V222.109H67.8386V69.3855L22.236 96.1592L0 53.5475L84.7982 4.14804H126.255V222.109H182.034V270H8.29138Z" fill="white"/>
<path d="M224.474 270V226.634L307.765 139.148C318.317 127.584 325.855 117.528 330.378 108.98C335.151 100.182 337.538 91.3827 337.538 82.5838C337.538 59.9581 323.594 48.6453 295.704 48.6453C284.901 48.6453 274.097 50.7821 263.293 55.0559C252.489 59.0782 241.936 65.3631 231.635 73.9106L212.791 30.9218C223.846 21.3687 237.413 13.8268 253.494 8.29609C269.825 2.76537 286.534 0 303.619 0C333.267 0 355.88 6.66201 371.458 19.986C387.287 33.0587 395.201 51.7877 395.201 76.1732C395.201 92.2626 391.432 107.723 383.895 122.556C376.608 137.137 364.548 152.975 347.714 170.07L296.458 222.109H405V270H224.474Z" fill="white"/>
</svg>
