<svg width="158" height="76" viewBox="0 0 158 76" fill="none" xmlns="http://www.w3.org/2000/svg">
<path fill-rule="evenodd" clip-rule="evenodd" d="M45.7818 30.6256L45.1228 33.7354L28.6208 33.7736L26.5633 43.2176L42.9152 43.254L41.363 48.9019C38.7106 49.0202 12.6972 49.2515 5.49779 49.0348L2.17358 61.0223C10.5994 61.0606 42.227 61.2572 45.4816 60.6946C51.1123 59.7205 53.2247 57.1333 54.5701 51.3617C56.0418 45.0602 57.6984 41.1602 53.4352 38.8516C55.2364 37.4332 56.6221 37.3094 58.1066 34.6348C58.6961 33.5752 59.1335 32.1186 59.507 30.6274H45.7818V30.6256ZM60.9842 27.5577C61.0794 27.1608 61.1746 26.7803 61.2734 26.4289C63.2687 19.4519 61.0501 15.5174 54.4895 15.1387L22.1591 15.1514L18.7196 27.5559H60.9842V27.5577Z" fill="#FFAB00"/>
<path fill-rule="evenodd" clip-rule="evenodd" d="M158 14.9024H131.484C127.313 30.2383 123.141 45.7726 118.967 61.1102H122.26L131.31 27.6438H131.501V27.5837H155.086L158 14.9024ZM64.4713 27.5582L66.9095 20.1552C67.9071 17.1874 69.6534 14.937 75.9065 14.8897C80.75 14.8551 91.6562 14.8041 96.9775 14.7695L93.8162 27.4671C85.0297 27.4435 73.2797 27.5582 64.4713 27.5582ZM58.8168 50.0439L63.7317 30.6261H76.3128L71.4821 49.119L100.569 49.1136L97.49 61.0829L65.2602 61.0847C57.5172 61.0847 57.5885 54.9016 58.8186 50.0439H58.8168ZM100.767 14.9024H127.93L115.12 61.0956H104.689L114.063 27.5181H97.3307L100.767 14.9006V14.9024Z" fill="#272584"/>
<path d="M153.888 32.6405L147.254 57.8791C145.945 62.8843 142.722 67.4142 138.587 70.6787C134.428 73.9615 129.315 75.9988 124.256 75.9988H14.9944C13.4824 75.9988 12.0327 75.8113 10.6671 75.4581C7.40514 74.6151 4.73626 72.8253 2.88195 70.3783C1.03131 67.9404 0.000732422 64.8743 0.000732422 61.4696C0.000732422 59.9857 0.203919 58.4199 0.628597 56.7995L2.63667 49.1197H7.10311L4.81131 57.8773C4.49097 59.1045 4.33721 60.3098 4.33721 61.4696C4.33721 63.9203 5.05294 66.0905 6.33796 67.7838C7.61565 69.468 9.46996 70.706 11.7526 71.2959C12.7356 71.549 13.8192 71.6838 14.9944 71.6838H124.256C128.318 71.6838 132.475 70.0069 135.894 67.3068C139.335 64.5903 142.008 60.8669 143.072 56.7995L149.423 32.6387H153.888V32.6405Z" fill="#FFAB00"/>
<path d="M33.7462 -0.000132417H143.007C144.52 -0.000132417 145.969 0.187401 147.335 0.540618C150.597 1.38361 153.266 3.17336 155.12 5.62039C156.969 8.05832 158.001 11.1244 158.001 14.5291C158.001 16.0112 157.798 17.577 157.373 19.1974L155.179 27.5818H150.712L153.189 18.1177C153.509 16.8906 153.663 15.6871 153.663 14.5273C153.663 12.0766 152.947 9.90452 151.662 8.21308C150.384 6.52893 148.528 5.29085 146.247 4.70094C145.265 4.44604 144.181 4.3113 143.006 4.3113H33.7462C29.6825 4.3113 25.5273 5.98818 22.1079 8.68647C18.6647 11.403 15.9958 15.1263 14.9304 19.1956L7.96901 45.8107H3.50439L10.7477 18.1177C12.0565 13.1126 15.2801 8.58086 19.4152 5.31816C23.5723 2.03542 28.6849 -0.00195312 33.7462 -0.00195312V-0.000132417Z" fill="#FFAB00"/>
</svg>
