<svg width="117" height="56" viewBox="0 0 117 56" fill="none" xmlns="http://www.w3.org/2000/svg">
<path fill-rule="evenodd" clip-rule="evenodd" d="M33.9025 22.5657L33.4145 24.8571L21.1947 24.8853L19.6711 31.8441L31.7798 31.8709L30.6303 36.0324C28.6662 36.1197 9.40314 36.29 4.07195 36.1304L1.61035 44.9633C7.84974 44.9915 31.2701 45.1364 33.6802 44.7218C37.8498 44.0041 39.414 42.0977 40.4103 37.8449C41.5001 33.2017 42.7269 30.3281 39.5699 28.627C40.9037 27.5819 41.9298 27.4906 43.0291 25.5199C43.4656 24.7391 43.7896 23.6658 44.0661 22.5671H33.9025V22.5657ZM45.16 20.3052C45.2305 20.0127 45.301 19.7323 45.3741 19.4734C46.8517 14.3325 45.2088 11.4333 40.3507 11.1543L16.4097 11.1637L13.8628 20.3038H45.16V20.3052Z" fill="#313131"/>
<path fill-rule="evenodd" clip-rule="evenodd" d="M116.724 10.9807H97.3658C94.2766 22.2808 91.1874 33.7271 88.0969 45.0286H90.5354L97.237 20.3691H97.378V20.3248H114.169L116.722 10.9807H116.724ZM47.7422 20.306L49.5477 14.8512C50.2865 12.6644 51.5796 11.0062 56.21 10.9714C59.7967 10.9459 67.8728 10.9083 71.8132 10.8828L69.4723 20.239C62.9658 20.2215 54.2649 20.306 47.7422 20.306ZM43.555 36.8745L47.1946 22.5666H56.5109L52.9338 36.193L74.4727 36.1889L72.1928 45.0084L48.3264 45.0098C42.5926 45.0098 42.6455 40.4538 43.5564 36.8745H43.555ZM74.6191 10.9807H94.7334L85.2476 45.0178H77.524L84.4655 20.2765H72.0748L74.6191 10.9794V10.9807Z" fill="#313131"/>
<path d="M113.955 24.0502L109.043 42.6471C108.074 46.3351 105.687 49.6729 102.625 52.0783C99.5451 54.4972 95.7592 55.9984 92.0126 55.9984H11.1039C9.98426 55.9984 8.9107 55.8602 7.8995 55.6C5.48399 54.9788 3.50766 53.6601 2.13454 51.857C0.764125 50.0606 0.000976562 47.8014 0.000976562 45.2927C0.000976562 44.1993 0.151438 43.0455 0.465914 41.8515L1.9529 36.1928H5.26033L3.56324 42.6457C3.32603 43.55 3.21217 44.4381 3.21217 45.2927C3.21217 47.0984 3.74217 48.6976 4.69373 49.9452C5.63987 51.1862 7.013 52.0985 8.70331 52.5331C9.43122 52.7196 10.2337 52.8189 11.1039 52.8189H92.0126C95.0204 52.8189 98.0988 51.5833 100.631 49.5937C103.179 47.5921 105.158 44.8486 105.946 41.8515L110.649 24.0488H113.955V24.0502Z" fill="#313131"/>
<path d="M24.99 -0.000611551H105.899C107.018 -0.000611551 108.092 0.137571 109.103 0.397836C111.519 1.01899 113.495 2.33775 114.868 4.14083C116.237 5.9372 117.002 8.19641 117.002 10.7052C117.002 11.7972 116.851 12.9509 116.537 14.145L114.911 20.3229H111.604L113.438 13.3494C113.675 12.4452 113.789 11.5584 113.789 10.7038C113.789 8.89805 113.259 7.29755 112.307 6.05123C111.361 4.81027 109.987 3.898 108.298 3.46333C107.57 3.27551 106.768 3.17624 105.897 3.17624H24.99C21.9808 3.17624 18.9038 4.41183 16.3717 6.40004C13.822 8.40167 11.8457 11.1452 11.0568 14.1436L5.90178 33.7547H2.5957L7.95943 13.3494C8.92862 9.66141 11.3157 6.32223 14.3777 3.91813C17.4561 1.49927 21.242 -0.00195312 24.99 -0.00195312V-0.000611551Z" fill="#313131"/>
</svg>
